<svg width="587" height="293" viewBox="0 0 587 293" fill="none" xmlns="http://www.w3.org/2000/svg">
<g filter="url(#filter0_d_256_14)">
<circle cx="288.5" cy="47.5" r="37.5" fill="black"/>
</g>
<line x1="273.628" y1="67.8989" x2="25.6279" y2="149.899" stroke="black" stroke-width="4"/>
<line x1="310.644" y1="64.1066" x2="551.644" y2="146.107" stroke="black" stroke-width="4"/>
<g filter="url(#filter1_d_256_14)">
<rect x="10" y="132" width="557" height="141" rx="12" fill="#99A1AF"/>
<rect x="12" y="134" width="553" height="137" rx="10" stroke="black" stroke-width="4"/>
</g>
<path d="M176.9 186.4C180.133 186.4 182.95 187.033 185.35 188.3C187.75 189.567 189.617 191.433 190.95 193.9C192.283 196.367 192.95 199.35 192.95 202.85V222H184.85V213.6H168.85V222H160.85V202.85C160.85 199.35 161.517 196.367 162.85 193.9C164.183 191.433 166.05 189.567 168.45 188.3C170.85 187.033 173.667 186.4 176.9 186.4ZM184.85 207.1V202.1C184.85 199.2 184.133 197.017 182.7 195.55C181.267 194.05 179.317 193.3 176.85 193.3C174.35 193.3 172.383 194.05 170.95 195.55C169.55 197.017 168.85 199.2 168.85 202.1V207.1H184.85ZM216.295 194.7C218.795 194.7 221.062 195.283 223.095 196.45C225.162 197.583 226.778 199.2 227.945 201.3C229.112 203.367 229.695 205.783 229.695 208.55C229.695 211.317 229.112 213.75 227.945 215.85C226.778 217.917 225.162 219.533 223.095 220.7C221.062 221.833 218.795 222.4 216.295 222.4C212.595 222.4 209.778 221.233 207.845 218.9V222H200.395V184.9H208.195V197.95C210.162 195.783 212.862 194.7 216.295 194.7ZM214.945 216C216.945 216 218.578 215.333 219.845 214C221.145 212.633 221.795 210.817 221.795 208.55C221.795 206.283 221.145 204.483 219.845 203.15C218.578 201.783 216.945 201.1 214.945 201.1C212.945 201.1 211.295 201.783 209.995 203.15C208.728 204.483 208.095 206.283 208.095 208.55C208.095 210.817 208.728 212.633 209.995 214C211.295 215.333 212.945 216 214.945 216ZM247.716 222.4C244.883 222.4 242.333 221.817 240.066 220.65C237.833 219.45 236.083 217.8 234.816 215.7C233.55 213.6 232.916 211.217 232.916 208.55C232.916 205.883 233.55 203.5 234.816 201.4C236.083 199.3 237.833 197.667 240.066 196.5C242.333 195.3 244.883 194.7 247.716 194.7C250.55 194.7 253.083 195.3 255.316 196.5C257.55 197.667 259.3 199.3 260.566 201.4C261.833 203.5 262.466 205.883 262.466 208.55C262.466 211.217 261.833 213.6 260.566 215.7C259.3 217.8 257.55 219.45 255.316 220.65C253.083 221.817 250.55 222.4 247.716 222.4ZM247.716 216C249.716 216 251.35 215.333 252.616 214C253.916 212.633 254.566 210.817 254.566 208.55C254.566 206.283 253.916 204.483 252.616 203.15C251.35 201.783 249.716 201.1 247.716 201.1C245.716 201.1 244.066 201.783 242.766 203.15C241.466 204.483 240.816 206.283 240.816 208.55C240.816 210.817 241.466 212.633 242.766 214C244.066 215.333 245.716 216 247.716 216ZM294.78 195.1V222H287.38V218.8C286.347 219.967 285.113 220.867 283.68 221.5C282.247 222.1 280.697 222.4 279.03 222.4C275.497 222.4 272.697 221.383 270.63 219.35C268.563 217.317 267.53 214.3 267.53 210.3V195.1H275.33V209.15C275.33 213.483 277.147 215.65 280.78 215.65C282.647 215.65 284.147 215.05 285.28 213.85C286.413 212.617 286.98 210.8 286.98 208.4V195.1H294.78ZM318.206 220.7C317.44 221.267 316.49 221.7 315.356 222C314.256 222.267 313.106 222.4 311.906 222.4C308.673 222.4 306.19 221.583 304.456 219.95C302.723 218.317 301.856 215.917 301.856 212.75V189.15H309.656V195.7H316.306V201.7H309.656V212.65C309.656 213.783 309.94 214.667 310.506 215.3C311.073 215.9 311.89 216.2 312.956 216.2C314.156 216.2 315.223 215.867 316.156 215.2L318.206 220.7ZM371.222 194.7C374.589 194.7 377.255 195.7 379.222 197.7C381.222 199.667 382.222 202.633 382.222 206.6V222H374.422V207.8C374.422 205.667 373.972 204.083 373.072 203.05C372.205 201.983 370.955 201.45 369.322 201.45C367.489 201.45 366.039 202.05 364.972 203.25C363.905 204.417 363.372 206.167 363.372 208.5V222H355.572V207.8C355.572 203.567 353.872 201.45 350.472 201.45C348.672 201.45 347.239 202.05 346.172 203.25C345.105 204.417 344.572 206.167 344.572 208.5V222H336.772V195.1H344.222V198.2C345.222 197.067 346.439 196.2 347.872 195.6C349.339 195 350.939 194.7 352.672 194.7C354.572 194.7 356.289 195.083 357.822 195.85C359.355 196.583 360.589 197.667 361.522 199.1C362.622 197.7 364.005 196.617 365.672 195.85C367.372 195.083 369.222 194.7 371.222 194.7ZM403.056 216.15C404.456 216.15 405.69 215.95 406.756 215.55C407.856 215.117 408.873 214.45 409.806 213.55L413.956 218.05C411.423 220.95 407.723 222.4 402.856 222.4C399.823 222.4 397.14 221.817 394.806 220.65C392.473 219.45 390.673 217.8 389.406 215.7C388.14 213.6 387.506 211.217 387.506 208.55C387.506 205.917 388.123 203.55 389.356 201.45C390.623 199.317 392.34 197.667 394.506 196.5C396.706 195.3 399.173 194.7 401.906 194.7C404.473 194.7 406.806 195.25 408.906 196.35C411.006 197.417 412.673 198.983 413.906 201.05C415.173 203.083 415.806 205.5 415.806 208.3L395.906 212.15C396.473 213.483 397.356 214.483 398.556 215.15C399.79 215.817 401.29 216.15 403.056 216.15ZM401.906 200.6C399.94 200.6 398.34 201.233 397.106 202.5C395.873 203.767 395.223 205.517 395.156 207.75L408.256 205.2C407.89 203.8 407.14 202.683 406.006 201.85C404.873 201.017 403.506 200.6 401.906 200.6Z" fill="black"/>
<defs>
<filter id="filter0_d_256_14" x="241" y="0" width="105" height="105" filterUnits="userSpaceOnUse" color-interpolation-filters="sRGB">
<feFlood flood-opacity="0" result="BackgroundImageFix"/>
<feColorMatrix in="SourceAlpha" type="matrix" values="0 0 0 0 0 0 0 0 0 0 0 0 0 0 0 0 0 0 127 0" result="hardAlpha"/>
<feOffset dx="5" dy="5"/>
<feGaussianBlur stdDeviation="7.5"/>
<feComposite in2="hardAlpha" operator="out"/>
<feColorMatrix type="matrix" values="0 0 0 0 0 0 0 0 0 0 0 0 0 0 0 0 0 0 1 0"/>
<feBlend mode="normal" in2="BackgroundImageFix" result="effect1_dropShadow_256_14"/>
<feBlend mode="normal" in="SourceGraphic" in2="effect1_dropShadow_256_14" result="shape"/>
</filter>
<filter id="filter1_d_256_14" x="0" y="122" width="587" height="171" filterUnits="userSpaceOnUse" color-interpolation-filters="sRGB">
<feFlood flood-opacity="0" result="BackgroundImageFix"/>
<feColorMatrix in="SourceAlpha" type="matrix" values="0 0 0 0 0 0 0 0 0 0 0 0 0 0 0 0 0 0 127 0" result="hardAlpha"/>
<feOffset dx="5" dy="5"/>
<feGaussianBlur stdDeviation="7.5"/>
<feComposite in2="hardAlpha" operator="out"/>
<feColorMatrix type="matrix" values="0 0 0 0 0 0 0 0 0 0 0 0 0 0 0 0 0 0 1 0"/>
<feBlend mode="normal" in2="BackgroundImageFix" result="effect1_dropShadow_256_14"/>
<feBlend mode="normal" in="SourceGraphic" in2="effect1_dropShadow_256_14" result="shape"/>
</filter>
</defs>
</svg>
