<svg width="587" height="293" viewBox="0 0 587 293" fill="none" xmlns="http://www.w3.org/2000/svg">
<g filter="url(#filter0_d_256_14)">
<circle cx="288.5" cy="47.5" r="37.5" fill="black"/>
</g>
<line x1="273.628" y1="67.8989" x2="25.6279" y2="149.899" stroke="black" stroke-width="4"/>
<line x1="310.644" y1="64.1066" x2="551.644" y2="146.107" stroke="black" stroke-width="4"/>
<g filter="url(#filter1_d_256_14)">
<rect x="10" y="132" width="557" height="141" rx="12" fill="#99A1AF"/>
<rect x="12" y="134" width="553" height="137" rx="10" stroke="black" stroke-width="4"/>
</g>
<path d="M149.9 222.6C146.333 222.6 143.1 221.833 140.2 220.3C137.333 218.733 135.067 216.583 133.4 213.85C131.767 211.083 130.95 207.967 130.95 204.5C130.95 201.033 131.767 197.933 133.4 195.2C135.067 192.433 137.333 190.283 140.2 188.75C143.1 187.183 146.35 186.4 149.95 186.4C152.983 186.4 155.717 186.933 158.15 188C160.617 189.067 162.683 190.6 164.35 192.6L159.15 197.4C156.783 194.667 153.85 193.3 150.35 193.3C148.183 193.3 146.25 193.783 144.55 194.75C142.85 195.683 141.517 197 140.55 198.7C139.617 200.4 139.15 202.333 139.15 204.5C139.15 206.667 139.617 208.6 140.55 210.3C141.517 212 142.85 213.333 144.55 214.3C146.25 215.233 148.183 215.7 150.35 215.7C153.85 215.7 156.783 214.317 159.15 211.55L164.35 216.35C162.683 218.383 160.617 219.933 158.15 221C155.683 222.067 152.933 222.6 149.9 222.6ZM181.142 222.4C178.309 222.4 175.759 221.817 173.492 220.65C171.259 219.45 169.509 217.8 168.242 215.7C166.976 213.6 166.342 211.217 166.342 208.55C166.342 205.883 166.976 203.5 168.242 201.4C169.509 199.3 171.259 197.667 173.492 196.5C175.759 195.3 178.309 194.7 181.142 194.7C183.976 194.7 186.509 195.3 188.742 196.5C190.976 197.667 192.726 199.3 193.992 201.4C195.259 203.5 195.892 205.883 195.892 208.55C195.892 211.217 195.259 213.6 193.992 215.7C192.726 217.8 190.976 219.45 188.742 220.65C186.509 221.817 183.976 222.4 181.142 222.4ZM181.142 216C183.142 216 184.776 215.333 186.042 214C187.342 212.633 187.992 210.817 187.992 208.55C187.992 206.283 187.342 204.483 186.042 203.15C184.776 201.783 183.142 201.1 181.142 201.1C179.142 201.1 177.492 201.783 176.192 203.15C174.892 204.483 174.242 206.283 174.242 208.55C174.242 210.817 174.892 212.633 176.192 214C177.492 215.333 179.142 216 181.142 216ZM217.456 194.7C220.789 194.7 223.473 195.7 225.506 197.7C227.573 199.7 228.606 202.667 228.606 206.6V222H220.806V207.8C220.806 205.667 220.339 204.083 219.406 203.05C218.473 201.983 217.123 201.45 215.356 201.45C213.389 201.45 211.823 202.067 210.656 203.3C209.489 204.5 208.906 206.3 208.906 208.7V222H201.106V195.1H208.556V198.25C209.589 197.117 210.873 196.25 212.406 195.65C213.939 195.017 215.623 194.7 217.456 194.7ZM251.876 220.7C251.11 221.267 250.16 221.7 249.026 222C247.926 222.267 246.776 222.4 245.576 222.4C242.343 222.4 239.86 221.583 238.126 219.95C236.393 218.317 235.526 215.917 235.526 212.75V189.15H243.326V195.7H249.976V201.7H243.326V212.65C243.326 213.783 243.61 214.667 244.176 215.3C244.743 215.9 245.56 216.2 246.626 216.2C247.826 216.2 248.893 215.867 249.826 215.2L251.876 220.7ZM282.752 195.1V222H275.302V218.9C273.368 221.233 270.568 222.4 266.902 222.4C264.368 222.4 262.068 221.833 260.002 220.7C257.968 219.567 256.368 217.95 255.202 215.85C254.035 213.75 253.452 211.317 253.452 208.55C253.452 205.783 254.035 203.35 255.202 201.25C256.368 199.15 257.968 197.533 260.002 196.4C262.068 195.267 264.368 194.7 266.902 194.7C270.335 194.7 273.018 195.783 274.952 197.95V195.1H282.752ZM268.252 216C270.218 216 271.852 215.333 273.152 214C274.452 212.633 275.102 210.817 275.102 208.55C275.102 206.283 274.452 204.483 273.152 203.15C271.852 201.783 270.218 201.1 268.252 201.1C266.252 201.1 264.602 201.783 263.302 203.15C262.002 204.483 261.352 206.283 261.352 208.55C261.352 210.817 262.002 212.633 263.302 214C264.602 215.333 266.252 216 268.252 216ZM302.973 222.4C300.106 222.4 297.523 221.817 295.223 220.65C292.956 219.45 291.173 217.8 289.873 215.7C288.606 213.6 287.973 211.217 287.973 208.55C287.973 205.883 288.606 203.5 289.873 201.4C291.173 199.3 292.956 197.667 295.223 196.5C297.523 195.3 300.106 194.7 302.973 194.7C305.806 194.7 308.273 195.3 310.373 196.5C312.506 197.667 314.056 199.35 315.023 201.55L308.973 204.8C307.573 202.333 305.556 201.1 302.923 201.1C300.89 201.1 299.206 201.767 297.873 203.1C296.54 204.433 295.873 206.25 295.873 208.55C295.873 210.85 296.54 212.667 297.873 214C299.206 215.333 300.89 216 302.923 216C305.59 216 307.606 214.767 308.973 212.3L315.023 215.6C314.056 217.733 312.506 219.4 310.373 220.6C308.273 221.8 305.806 222.4 302.973 222.4ZM335.519 220.7C334.752 221.267 333.802 221.7 332.669 222C331.569 222.267 330.419 222.4 329.219 222.4C325.985 222.4 323.502 221.583 321.769 219.95C320.035 218.317 319.169 215.917 319.169 212.75V189.15H326.969V195.7H333.619V201.7H326.969V212.65C326.969 213.783 327.252 214.667 327.819 215.3C328.385 215.9 329.202 216.2 330.269 216.2C331.469 216.2 332.535 215.867 333.469 215.2L335.519 220.7ZM394.584 186.4C398.718 186.4 401.934 187.617 404.234 190.05C406.534 192.45 407.684 195.933 407.684 200.5V222H399.584V200.75C399.584 198.283 398.934 196.433 397.634 195.2C396.368 193.933 394.684 193.3 392.584 193.3C390.284 193.3 388.451 193.967 387.084 195.3C385.718 196.6 385.034 198.583 385.034 201.25V222H376.934V200.75C376.934 198.283 376.334 196.433 375.134 195.2C373.934 193.933 372.301 193.3 370.234 193.3C367.968 193.3 366.151 193.967 364.784 195.3C363.418 196.6 362.734 198.583 362.734 201.25V222H354.634V187H362.484V191.3C363.551 189.733 364.968 188.533 366.734 187.7C368.501 186.833 370.534 186.4 372.834 186.4C375.234 186.4 377.334 186.85 379.134 187.75C380.934 188.617 382.318 189.883 383.284 191.55C384.484 189.883 386.051 188.617 387.984 187.75C389.951 186.85 392.151 186.4 394.584 186.4ZM428.67 216.15C430.07 216.15 431.303 215.95 432.37 215.55C433.47 215.117 434.486 214.45 435.42 213.55L439.57 218.05C437.036 220.95 433.336 222.4 428.47 222.4C425.436 222.4 422.753 221.817 420.42 220.65C418.086 219.45 416.286 217.8 415.02 215.7C413.753 213.6 413.12 211.217 413.12 208.55C413.12 205.917 413.736 203.55 414.97 201.45C416.236 199.317 417.953 197.667 420.12 196.5C422.32 195.3 424.786 194.7 427.52 194.7C430.086 194.7 432.42 195.25 434.52 196.35C436.62 197.417 438.286 198.983 439.52 201.05C440.786 203.083 441.42 205.5 441.42 208.3L421.52 212.15C422.086 213.483 422.97 214.483 424.17 215.15C425.403 215.817 426.903 216.15 428.67 216.15ZM427.52 200.6C425.553 200.6 423.953 201.233 422.72 202.5C421.486 203.767 420.836 205.517 420.77 207.75L433.87 205.2C433.503 203.8 432.753 202.683 431.62 201.85C430.486 201.017 429.12 200.6 427.52 200.6Z" fill="black"/>
<defs>
<filter id="filter0_d_256_14" x="241" y="0" width="105" height="105" filterUnits="userSpaceOnUse" color-interpolation-filters="sRGB">
<feFlood flood-opacity="0" result="BackgroundImageFix"/>
<feColorMatrix in="SourceAlpha" type="matrix" values="0 0 0 0 0 0 0 0 0 0 0 0 0 0 0 0 0 0 127 0" result="hardAlpha"/>
<feOffset dx="5" dy="5"/>
<feGaussianBlur stdDeviation="7.5"/>
<feComposite in2="hardAlpha" operator="out"/>
<feColorMatrix type="matrix" values="0 0 0 0 0 0 0 0 0 0 0 0 0 0 0 0 0 0 1 0"/>
<feBlend mode="normal" in2="BackgroundImageFix" result="effect1_dropShadow_256_14"/>
<feBlend mode="normal" in="SourceGraphic" in2="effect1_dropShadow_256_14" result="shape"/>
</filter>
<filter id="filter1_d_256_14" x="0" y="122" width="587" height="171" filterUnits="userSpaceOnUse" color-interpolation-filters="sRGB">
<feFlood flood-opacity="0" result="BackgroundImageFix"/>
<feColorMatrix in="SourceAlpha" type="matrix" values="0 0 0 0 0 0 0 0 0 0 0 0 0 0 0 0 0 0 127 0" result="hardAlpha"/>
<feOffset dx="5" dy="5"/>
<feGaussianBlur stdDeviation="7.5"/>
<feComposite in2="hardAlpha" operator="out"/>
<feColorMatrix type="matrix" values="0 0 0 0 0 0 0 0 0 0 0 0 0 0 0 0 0 0 1 0"/>
<feBlend mode="normal" in2="BackgroundImageFix" result="effect1_dropShadow_256_14"/>
<feBlend mode="normal" in="SourceGraphic" in2="effect1_dropShadow_256_14" result="shape"/>
</filter>
</defs>
</svg>
