<svg width="98" height="73" viewBox="0 0 98 73" fill="none" xmlns="http://www.w3.org/2000/svg">
<path d="M32.1557 5.41346C26.1557 14.6135 27.4891 27.5468 34.4224 26.2135C39.7557 25.2801 45.0891 10.2135 42.4224 3.41346C40.5557 -1.78654 36.4224 -0.986546 32.1557 5.41346Z" fill="#0C0C0C"/>
<path d="M69.6231 7.67977C64.9564 10.7464 63.4897 24.8798 67.0897 31.9464C69.8897 37.2798 73.7564 37.1464 77.2231 31.5464C80.9564 25.6798 80.1564 14.6131 75.7564 9.94644C72.4231 6.34644 71.8897 6.2131 69.6231 7.67977Z" fill="#0C0C0C"/>
<path d="M0.288106 21.9463C-1.57856 29.2796 5.88811 47.6796 15.0881 58.213C17.8881 61.5463 23.4881 65.5463 28.8214 68.213C37.2214 72.3463 38.5548 72.613 51.7548 72.613C64.4214 72.613 66.5548 72.213 74.1548 68.7463C83.8881 64.213 97.0881 51.013 97.0881 45.6796C97.0881 41.013 93.7548 41.813 84.5548 49.1463C74.4214 57.1463 69.6214 59.6796 61.2214 61.2796C53.2214 62.7463 40.2881 60.8796 33.2214 57.2796C24.8214 53.013 12.4214 37.2796 7.48811 24.613C4.95477 18.213 1.62144 16.8796 0.288106 21.9463Z" fill="#0C0C0C"/>
</svg>
