<svg width="587" height="293" viewBox="0 0 587 293" fill="none" xmlns="http://www.w3.org/2000/svg">
<g filter="url(#filter0_d_256_14)">
<circle cx="288.5" cy="47.5" r="37.5" fill="black"/>
</g>
<line x1="273.628" y1="67.8989" x2="25.6279" y2="149.899" stroke="black" stroke-width="4"/>
<line x1="310.644" y1="64.1066" x2="551.644" y2="146.107" stroke="black" stroke-width="4"/>
<g filter="url(#filter1_d_256_14)">
<rect x="10" y="132" width="557" height="141" rx="12" fill="#99A1AF"/>
<rect x="12" y="134" width="553" height="137" rx="10" stroke="black" stroke-width="4"/>
</g>
<path d="M160.65 196.8C157.65 195.067 154.433 193.95 151 193.45V222H142.9V193.45C139.467 193.95 136.233 195.067 133.2 196.8L130.45 190.75C132.85 189.317 135.45 188.233 138.25 187.5C141.05 186.767 143.933 186.4 146.9 186.4C149.9 186.4 152.8 186.767 155.6 187.5C158.433 188.233 161.033 189.317 163.4 190.75L160.65 196.8ZM177.3 216.15C178.7 216.15 179.934 215.95 181 215.55C182.1 215.117 183.117 214.45 184.05 213.55L188.2 218.05C185.667 220.95 181.967 222.4 177.1 222.4C174.067 222.4 171.384 221.817 169.05 220.65C166.717 219.45 164.917 217.8 163.65 215.7C162.384 213.6 161.75 211.217 161.75 208.55C161.75 205.917 162.367 203.55 163.6 201.45C164.867 199.317 166.584 197.667 168.75 196.5C170.95 195.3 173.417 194.7 176.15 194.7C178.717 194.7 181.05 195.25 183.15 196.35C185.25 197.417 186.917 198.983 188.15 201.05C189.417 203.083 190.05 205.5 190.05 208.3L170.15 212.15C170.717 213.483 171.6 214.483 172.8 215.15C174.034 215.817 175.534 216.15 177.3 216.15ZM176.15 200.6C174.184 200.6 172.584 201.233 171.35 202.5C170.117 203.767 169.467 205.517 169.4 207.75L182.5 205.2C182.134 203.8 181.384 202.683 180.25 201.85C179.117 201.017 177.75 200.6 176.15 200.6ZM208.293 222.4C205.427 222.4 202.843 221.817 200.543 220.65C198.277 219.45 196.493 217.8 195.193 215.7C193.927 213.6 193.293 211.217 193.293 208.55C193.293 205.883 193.927 203.5 195.193 201.4C196.493 199.3 198.277 197.667 200.543 196.5C202.843 195.3 205.427 194.7 208.293 194.7C211.127 194.7 213.593 195.3 215.693 196.5C217.827 197.667 219.377 199.35 220.343 201.55L214.293 204.8C212.893 202.333 210.877 201.1 208.243 201.1C206.21 201.1 204.527 201.767 203.193 203.1C201.86 204.433 201.193 206.25 201.193 208.55C201.193 210.85 201.86 212.667 203.193 214C204.527 215.333 206.21 216 208.243 216C210.91 216 212.927 214.767 214.293 212.3L220.343 215.6C219.377 217.733 217.827 219.4 215.693 220.6C213.593 221.8 211.127 222.4 208.293 222.4ZM240.989 194.7C244.322 194.7 247.006 195.7 249.039 197.7C251.106 199.7 252.139 202.667 252.139 206.6V222H244.339V207.8C244.339 205.667 243.872 204.083 242.939 203.05C242.006 201.983 240.656 201.45 238.889 201.45C236.922 201.45 235.356 202.067 234.189 203.3C233.022 204.5 232.439 206.3 232.439 208.7V222H224.639V184.9H232.439V197.9C233.472 196.867 234.722 196.083 236.189 195.55C237.656 194.983 239.256 194.7 240.989 194.7ZM285.42 222.6C282.653 222.6 279.97 222.233 277.37 221.5C274.803 220.733 272.736 219.75 271.17 218.55L273.92 212.45C275.42 213.55 277.203 214.433 279.27 215.1C281.336 215.767 283.403 216.1 285.47 216.1C287.77 216.1 289.47 215.767 290.57 215.1C291.67 214.4 292.22 213.483 292.22 212.35C292.22 211.517 291.886 210.833 291.22 210.3C290.586 209.733 289.753 209.283 288.72 208.95C287.72 208.617 286.353 208.25 284.62 207.85C281.953 207.217 279.77 206.583 278.07 205.95C276.37 205.317 274.903 204.3 273.67 202.9C272.47 201.5 271.87 199.633 271.87 197.3C271.87 195.267 272.42 193.433 273.52 191.8C274.62 190.133 276.27 188.817 278.47 187.85C280.703 186.883 283.42 186.4 286.62 186.4C288.853 186.4 291.036 186.667 293.17 187.2C295.303 187.733 297.17 188.5 298.77 189.5L296.27 195.65C293.036 193.817 289.803 192.9 286.57 192.9C284.303 192.9 282.62 193.267 281.52 194C280.453 194.733 279.92 195.7 279.92 196.9C279.92 198.1 280.536 199 281.77 199.6C283.036 200.167 284.953 200.733 287.52 201.3C290.186 201.933 292.37 202.567 294.07 203.2C295.77 203.833 297.22 204.833 298.42 206.2C299.653 207.567 300.27 209.417 300.27 211.75C300.27 213.75 299.703 215.583 298.57 217.25C297.47 218.883 295.803 220.183 293.57 221.15C291.336 222.117 288.62 222.6 285.42 222.6ZM321.454 220.7C320.688 221.267 319.738 221.7 318.604 222C317.504 222.267 316.354 222.4 315.154 222.4C311.921 222.4 309.438 221.583 307.704 219.95C305.971 218.317 305.104 215.917 305.104 212.75V189.15H312.904V195.7H319.554V201.7H312.904V212.65C312.904 213.783 313.188 214.667 313.754 215.3C314.321 215.9 315.138 216.2 316.204 216.2C317.404 216.2 318.471 215.867 319.404 215.2L321.454 220.7ZM352.33 195.1V222H344.88V218.9C342.946 221.233 340.146 222.4 336.48 222.4C333.946 222.4 331.646 221.833 329.58 220.7C327.546 219.567 325.946 217.95 324.78 215.85C323.613 213.75 323.03 211.317 323.03 208.55C323.03 205.783 323.613 203.35 324.78 201.25C325.946 199.15 327.546 197.533 329.58 196.4C331.646 195.267 333.946 194.7 336.48 194.7C339.913 194.7 342.596 195.783 344.53 197.95V195.1H352.33ZM337.83 216C339.796 216 341.43 215.333 342.73 214C344.03 212.633 344.68 210.817 344.68 208.55C344.68 206.283 344.03 204.483 342.73 203.15C341.43 201.783 339.796 201.1 337.83 201.1C335.83 201.1 334.18 201.783 332.88 203.15C331.58 204.483 330.93 206.283 330.93 208.55C330.93 210.817 331.58 212.633 332.88 214C334.18 215.333 335.83 216 337.83 216ZM372.551 222.4C369.685 222.4 367.101 221.817 364.801 220.65C362.535 219.45 360.751 217.8 359.451 215.7C358.185 213.6 357.551 211.217 357.551 208.55C357.551 205.883 358.185 203.5 359.451 201.4C360.751 199.3 362.535 197.667 364.801 196.5C367.101 195.3 369.685 194.7 372.551 194.7C375.385 194.7 377.851 195.3 379.951 196.5C382.085 197.667 383.635 199.35 384.601 201.55L378.551 204.8C377.151 202.333 375.135 201.1 372.501 201.1C370.468 201.1 368.785 201.767 367.451 203.1C366.118 204.433 365.451 206.25 365.451 208.55C365.451 210.85 366.118 212.667 367.451 214C368.785 215.333 370.468 216 372.501 216C375.168 216 377.185 214.767 378.551 212.3L384.601 215.6C383.635 217.733 382.085 219.4 379.951 220.6C377.851 221.8 375.385 222.4 372.551 222.4ZM400.447 211.45L396.697 215.15V222H388.897V184.9H396.697V205.9L408.097 195.1H417.397L406.197 206.5L418.397 222H408.947L400.447 211.45ZM430.076 222.4C427.842 222.4 425.659 222.133 423.526 221.6C421.392 221.033 419.692 220.333 418.426 219.5L421.026 213.9C422.226 214.667 423.676 215.3 425.376 215.8C427.076 216.267 428.742 216.5 430.376 216.5C433.676 216.5 435.326 215.683 435.326 214.05C435.326 213.283 434.876 212.733 433.976 212.4C433.076 212.067 431.692 211.783 429.826 211.55C427.626 211.217 425.809 210.833 424.376 210.4C422.942 209.967 421.692 209.2 420.626 208.1C419.592 207 419.076 205.433 419.076 203.4C419.076 201.7 419.559 200.2 420.526 198.9C421.526 197.567 422.959 196.533 424.826 195.8C426.726 195.067 428.959 194.7 431.526 194.7C433.426 194.7 435.309 194.917 437.176 195.35C439.076 195.75 440.642 196.317 441.876 197.05L439.276 202.6C436.909 201.267 434.326 200.6 431.526 200.6C429.859 200.6 428.609 200.833 427.776 201.3C426.942 201.767 426.526 202.367 426.526 203.1C426.526 203.933 426.976 204.517 427.876 204.85C428.776 205.183 430.209 205.5 432.176 205.8C434.376 206.167 436.176 206.567 437.576 207C438.976 207.4 440.192 208.15 441.226 209.25C442.259 210.35 442.776 211.883 442.776 213.85C442.776 215.517 442.276 217 441.276 218.3C440.276 219.6 438.809 220.617 436.876 221.35C434.976 222.05 432.709 222.4 430.076 222.4Z" fill="black"/>
<defs>
<filter id="filter0_d_256_14" x="241" y="0" width="105" height="105" filterUnits="userSpaceOnUse" color-interpolation-filters="sRGB">
<feFlood flood-opacity="0" result="BackgroundImageFix"/>
<feColorMatrix in="SourceAlpha" type="matrix" values="0 0 0 0 0 0 0 0 0 0 0 0 0 0 0 0 0 0 127 0" result="hardAlpha"/>
<feOffset dx="5" dy="5"/>
<feGaussianBlur stdDeviation="7.5"/>
<feComposite in2="hardAlpha" operator="out"/>
<feColorMatrix type="matrix" values="0 0 0 0 0 0 0 0 0 0 0 0 0 0 0 0 0 0 1 0"/>
<feBlend mode="normal" in2="BackgroundImageFix" result="effect1_dropShadow_256_14"/>
<feBlend mode="normal" in="SourceGraphic" in2="effect1_dropShadow_256_14" result="shape"/>
</filter>
<filter id="filter1_d_256_14" x="0" y="122" width="587" height="171" filterUnits="userSpaceOnUse" color-interpolation-filters="sRGB">
<feFlood flood-opacity="0" result="BackgroundImageFix"/>
<feColorMatrix in="SourceAlpha" type="matrix" values="0 0 0 0 0 0 0 0 0 0 0 0 0 0 0 0 0 0 127 0" result="hardAlpha"/>
<feOffset dx="5" dy="5"/>
<feGaussianBlur stdDeviation="7.5"/>
<feComposite in2="hardAlpha" operator="out"/>
<feColorMatrix type="matrix" values="0 0 0 0 0 0 0 0 0 0 0 0 0 0 0 0 0 0 1 0"/>
<feBlend mode="normal" in2="BackgroundImageFix" result="effect1_dropShadow_256_14"/>
<feBlend mode="normal" in="SourceGraphic" in2="effect1_dropShadow_256_14" result="shape"/>
</filter>
</defs>
</svg>
