<svg width="587" height="293" viewBox="0 0 587 293" fill="none" xmlns="http://www.w3.org/2000/svg">
<g filter="url(#filter0_d_256_14)">
<circle cx="288.5" cy="47.5" r="37.5" fill="black"/>
</g>
<line x1="273.628" y1="67.8989" x2="25.6279" y2="149.899" stroke="black" stroke-width="4"/>
<line x1="310.644" y1="64.1066" x2="551.644" y2="146.107" stroke="black" stroke-width="4"/>
<g filter="url(#filter1_d_256_14)">
<rect x="10" y="132" width="557" height="141" rx="12" fill="#99A1AF"/>
<rect x="12" y="134" width="553" height="137" rx="10" stroke="black" stroke-width="4"/>
</g>
<path d="M193.1 186.4C197.233 186.4 200.45 187.617 202.75 190.05C205.05 192.45 206.2 195.933 206.2 200.5V222H198.1V200.75C198.1 198.283 197.45 196.433 196.15 195.2C194.883 193.933 193.2 193.3 191.1 193.3C188.8 193.3 186.967 193.967 185.6 195.3C184.233 196.6 183.55 198.583 183.55 201.25V222H175.45V200.75C175.45 198.283 174.85 196.433 173.65 195.2C172.45 193.933 170.817 193.3 168.75 193.3C166.483 193.3 164.667 193.967 163.3 195.3C161.933 196.6 161.25 198.583 161.25 201.25V222H153.15V187H161V191.3C162.067 189.733 163.483 188.533 165.25 187.7C167.017 186.833 169.05 186.4 171.35 186.4C173.75 186.4 175.85 186.85 177.65 187.75C179.45 188.617 180.833 189.883 181.8 191.55C183 189.883 184.567 188.617 186.5 187.75C188.467 186.85 190.667 186.4 193.1 186.4ZM240.735 195.1V217.5C240.735 222.433 239.485 226.1 236.985 228.5C234.485 230.9 230.852 232.1 226.085 232.1C223.552 232.1 221.152 231.783 218.885 231.15C216.652 230.517 214.768 229.6 213.235 228.4L216.335 222.8C217.468 223.733 218.852 224.467 220.485 225C222.118 225.533 223.768 225.8 225.435 225.8C228.035 225.8 229.935 225.2 231.135 224C232.335 222.8 232.935 220.967 232.935 218.5V217.6C231.935 218.6 230.752 219.367 229.385 219.9C228.018 220.433 226.552 220.7 224.985 220.7C221.452 220.7 218.652 219.7 216.585 217.7C214.518 215.667 213.485 212.633 213.485 208.6V195.1H221.285V207.45C221.285 211.817 223.102 214 226.735 214C228.602 214 230.102 213.4 231.235 212.2C232.368 210.967 232.935 209.15 232.935 206.75V195.1H240.735ZM314.721 187V207.65C314.721 212.517 313.405 216.233 310.771 218.8C308.138 221.333 304.405 222.6 299.571 222.6C297.171 222.6 295.021 222.25 293.121 221.55C291.255 220.85 289.721 219.867 288.521 218.6C287.288 219.867 285.738 220.85 283.871 221.55C282.005 222.25 279.888 222.6 277.521 222.6C272.688 222.6 268.955 221.333 266.321 218.8C263.688 216.233 262.371 212.517 262.371 207.65V187H270.471V207.4C270.471 210.233 271.055 212.333 272.221 213.7C273.388 215.033 275.121 215.7 277.421 215.7C282.121 215.7 284.471 212.933 284.471 207.4V187H292.571V207.4C292.571 212.933 294.938 215.7 299.671 215.7C304.271 215.7 306.571 212.933 306.571 207.4V187H314.721ZM334.98 222.4C332.147 222.4 329.597 221.817 327.33 220.65C325.097 219.45 323.347 217.8 322.08 215.7C320.813 213.6 320.18 211.217 320.18 208.55C320.18 205.883 320.813 203.5 322.08 201.4C323.347 199.3 325.097 197.667 327.33 196.5C329.597 195.3 332.147 194.7 334.98 194.7C337.813 194.7 340.347 195.3 342.58 196.5C344.813 197.667 346.563 199.3 347.83 201.4C349.097 203.5 349.73 205.883 349.73 208.55C349.73 211.217 349.097 213.6 347.83 215.7C346.563 217.8 344.813 219.45 342.58 220.65C340.347 221.817 337.813 222.4 334.98 222.4ZM334.98 216C336.98 216 338.613 215.333 339.88 214C341.18 212.633 341.83 210.817 341.83 208.55C341.83 206.283 341.18 204.483 339.88 203.15C338.613 201.783 336.98 201.1 334.98 201.1C332.98 201.1 331.33 201.783 330.03 203.15C328.73 204.483 328.08 206.283 328.08 208.55C328.08 210.817 328.73 212.633 330.03 214C331.33 215.333 332.98 216 334.98 216ZM362.394 198.65C363.327 197.35 364.577 196.367 366.144 195.7C367.744 195.033 369.577 194.7 371.644 194.7V201.9C370.777 201.833 370.194 201.8 369.894 201.8C367.66 201.8 365.91 202.433 364.644 203.7C363.377 204.933 362.744 206.8 362.744 209.3V222H354.944V195.1H362.394V198.65ZM387.832 211.45L384.082 215.15V222H376.282V184.9H384.082V205.9L395.482 195.1H404.782L393.582 206.5L405.782 222H396.332L387.832 211.45ZM417.461 222.4C415.227 222.4 413.044 222.133 410.911 221.6C408.777 221.033 407.077 220.333 405.811 219.5L408.411 213.9C409.611 214.667 411.061 215.3 412.761 215.8C414.461 216.267 416.127 216.5 417.761 216.5C421.061 216.5 422.711 215.683 422.711 214.05C422.711 213.283 422.261 212.733 421.361 212.4C420.461 212.067 419.077 211.783 417.211 211.55C415.011 211.217 413.194 210.833 411.761 210.4C410.327 209.967 409.077 209.2 408.011 208.1C406.977 207 406.461 205.433 406.461 203.4C406.461 201.7 406.944 200.2 407.911 198.9C408.911 197.567 410.344 196.533 412.211 195.8C414.111 195.067 416.344 194.7 418.911 194.7C420.811 194.7 422.694 194.917 424.561 195.35C426.461 195.75 428.027 196.317 429.261 197.05L426.661 202.6C424.294 201.267 421.711 200.6 418.911 200.6C417.244 200.6 415.994 200.833 415.161 201.3C414.327 201.767 413.911 202.367 413.911 203.1C413.911 203.933 414.361 204.517 415.261 204.85C416.161 205.183 417.594 205.5 419.561 205.8C421.761 206.167 423.561 206.567 424.961 207C426.361 207.4 427.577 208.15 428.611 209.25C429.644 210.35 430.161 211.883 430.161 213.85C430.161 215.517 429.661 217 428.661 218.3C427.661 219.6 426.194 220.617 424.261 221.35C422.361 222.05 420.094 222.4 417.461 222.4Z" fill="black"/>
<defs>
<filter id="filter0_d_256_14" x="241" y="0" width="105" height="105" filterUnits="userSpaceOnUse" color-interpolation-filters="sRGB">
<feFlood flood-opacity="0" result="BackgroundImageFix"/>
<feColorMatrix in="SourceAlpha" type="matrix" values="0 0 0 0 0 0 0 0 0 0 0 0 0 0 0 0 0 0 127 0" result="hardAlpha"/>
<feOffset dx="5" dy="5"/>
<feGaussianBlur stdDeviation="7.5"/>
<feComposite in2="hardAlpha" operator="out"/>
<feColorMatrix type="matrix" values="0 0 0 0 0 0 0 0 0 0 0 0 0 0 0 0 0 0 1 0"/>
<feBlend mode="normal" in2="BackgroundImageFix" result="effect1_dropShadow_256_14"/>
<feBlend mode="normal" in="SourceGraphic" in2="effect1_dropShadow_256_14" result="shape"/>
</filter>
<filter id="filter1_d_256_14" x="0" y="122" width="587" height="171" filterUnits="userSpaceOnUse" color-interpolation-filters="sRGB">
<feFlood flood-opacity="0" result="BackgroundImageFix"/>
<feColorMatrix in="SourceAlpha" type="matrix" values="0 0 0 0 0 0 0 0 0 0 0 0 0 0 0 0 0 0 127 0" result="hardAlpha"/>
<feOffset dx="5" dy="5"/>
<feGaussianBlur stdDeviation="7.5"/>
<feComposite in2="hardAlpha" operator="out"/>
<feColorMatrix type="matrix" values="0 0 0 0 0 0 0 0 0 0 0 0 0 0 0 0 0 0 1 0"/>
<feBlend mode="normal" in2="BackgroundImageFix" result="effect1_dropShadow_256_14"/>
<feBlend mode="normal" in="SourceGraphic" in2="effect1_dropShadow_256_14" result="shape"/>
</filter>
</defs>
</svg>
